<?xml version="1.0" encoding="UTF-8"?>
<!DOCTYPE svg PUBLIC "-//W3C//DTD SVG 1.1//EN" "http://www.w3.org/Graphics/SVG/1.1/DTD/svg11.dtd">
<svg version="1.1" xmlns="http://www.w3.org/2000/svg" xmlns:xlink="http://www.w3.org/1999/xlink" x="0px" y="0px" width="1200" height="600" viewBox="0, 0, 1200, 600">
  <g id="Background">
    <rect x="0" y="0" width="1200" height="600" fill="#000000" fill-opacity="0"/>
  </g>
  <g id="Layer 1">
    <path d="M80,60 L100,60 C105.523,60 110,64.477 110,70 L110,410 C110,415.523 105.523,420 100,420 L80,420 C74.477,420 70,415.523 70,410 L70,70 C70,64.477 74.477,60 80,60 z" fill="#FAA600"/>
    <path d="M140,120 L160,120 C165.523,120 170,124.477 170,130 L170,350 C170,355.523 165.523,360 160,360 L140,360 C134.477,360 130,355.523 130,350 L130,130 C130,124.477 134.477,120 140,120 z" fill="#65A1CF"/>
    <path d="M200,180 L220,180 C225.523,180 230,184.133 230,189.231 L230,290.769 C230,295.867 225.523,300 220,300 L200,300 C194.477,300 190,295.867 190,290.769 L190,189.231 C190,184.133 194.477,180 200,180 z" fill="#FAA600"/>
    <path d="M440,60 L460,60 C465.523,60 470,64.477 470,70 L470,410 C470,415.523 465.523,420 460,420 L440,420 C434.477,420 430,415.523 430,410 L430,70 C430,64.477 434.477,60 440,60 z" fill="#FAA600"/>
    <path d="M380,120 L400,120 C405.523,120 410,124.477 410,130 L410,350 C410,355.523 405.523,360 400,360 L380,360 C374.477,360 370,355.523 370,350 L370,130 C370,124.477 374.477,120 380,120 z" fill="#FAA600"/>
    <path d="M800,60 L820,60 C825.523,60 830,64.477 830,70 L830,410 C830,415.523 825.523,420 820,420 L800,420 C794.477,420 790,415.523 790,410 L790,70 C790,64.477 794.477,60 800,60 z" fill="#65A1CF"/>
    <path d="M680,120 L700,120 C705.523,120 710,124.477 710,130 L710,350 C710,355.523 705.523,360 700,360 L680,360 C674.477,360 670,355.523 670,350 L670,130 C670,124.477 674.477,120 680,120 z" fill="#FAA600"/>
    <path d="M1100,60 L1120,60 C1125.523,60 1130,64.477 1130,70 L1130,410 C1130,415.523 1125.523,420 1120,420 L1100,420 C1094.477,420 1090,415.523 1090,410 L1090,70 C1090,64.477 1094.477,60 1100,60 z" fill="#65A1CF"/>
    <path d="M1040,120 L1060,120 C1065.523,120 1070,124.477 1070,130 L1070,350 C1070,355.523 1065.523,360 1060,360 L1040,360 C1034.477,360 1030,355.523 1030,350 L1030,130 C1030,124.477 1034.477,120 1040,120 z" fill="#65A1CF"/>
    <path d="M980,180 L1000,180 C1005.523,180 1010,184.133 1010,189.231 L1010,290.769 C1010,295.867 1005.523,300 1000,300 L980,300 C974.477,300 970,295.867 970,290.769 L970,189.231 C970,184.133 974.477,180 980,180 z" fill="#65A1CF"/>
    <path d="M740,180 L760,180 C765.523,180 770,184.133 770,189.231 L770,290.769 C770,295.867 765.523,300 760,300 L740,300 C734.477,300 730,295.867 730,290.769 L730,189.231 C730,184.133 734.477,180 740,180 z" fill="#FAA600"/>
    <path d="M500,180 L520,180 C525.523,180 530,184.133 530,189.231 L530,290.769 C530,295.867 525.523,300 520,300 L500,300 C494.477,300 490,295.867 490,290.769 L490,189.231 C490,184.133 494.477,180 500,180 z" fill="#FAA600"/>
    <text transform="matrix(1, 0, 0, 1, 90, 240)">
      <tspan x="-12.797" y="13.5" font-family="Verdana-Bold" font-size="36" fill="#294270">6</tspan>
    </text>
    <text transform="matrix(1, 0, 0, 1, 150, 240)">
      <tspan x="-12.797" y="13.5" font-family="Verdana-Bold" font-size="36" fill="#294270">4</tspan>
    </text>
    <text transform="matrix(1, 0, 0, 1, 210, 240)">
      <tspan x="-12.797" y="13.5" font-family="Verdana-Bold" font-size="36" fill="#294270">2</tspan>
    </text>
    <text transform="matrix(1, 0, 0, 1, 990, 240)">
      <tspan x="-12.797" y="13.5" font-family="Verdana-Bold" font-size="36" fill="#294270">2</tspan>
    </text>
    <text transform="matrix(1, 0, 0, 1, 750, 240)">
      <tspan x="-12.797" y="13.5" font-family="Verdana-Bold" font-size="36" fill="#294270">2</tspan>
    </text>
    <text transform="matrix(1, 0, 0, 1, 510, 240)">
      <tspan x="-12.797" y="13.5" font-family="Verdana-Bold" font-size="36" fill="#294270">2</tspan>
    </text>
    <text transform="matrix(1, 0, 0, 1, 1050, 240)">
      <tspan x="-12.797" y="13.5" font-family="Verdana-Bold" font-size="36" fill="#294270">4</tspan>
    </text>
    <text transform="matrix(1, 0, 0, 1, 690, 240)">
      <tspan x="-12.797" y="13.5" font-family="Verdana-Bold" font-size="36" fill="#294270">4</tspan>
    </text>
    <text transform="matrix(1, 0, 0, 1, 390, 240)">
      <tspan x="-12.797" y="13.5" font-family="Verdana-Bold" font-size="36" fill="#294270">4</tspan>
    </text>
    <text transform="matrix(1, 0, 0, 1, 810, 240)">
      <tspan x="-12.797" y="13.5" font-family="Verdana-Bold" font-size="36" fill="#294270">6</tspan>
    </text>
    <text transform="matrix(1, 0, 0, 1, 450, 240)">
      <tspan x="-12.797" y="13.5" font-family="Verdana-Bold" font-size="36" fill="#294270">6</tspan>
    </text>
    <text transform="matrix(1, 0, 0, 1, 1110, 240)">
      <tspan x="-12.797" y="13.5" font-family="Verdana-Bold" font-size="36" fill="#294270">6</tspan>
    </text>
    <text transform="matrix(1, 0, 0, 1, 153.268, 500)">
      <tspan x="-61.33" y="-30.5" font-family="Verdana-Bold" font-size="36" fill="#294270">Initial</tspan>
      <tspan x="-81.308" y="13.5" font-family="Verdana-Bold" font-size="36" fill="#294270">position</tspan>
      <tspan x="-83.268" y="57.5" font-family="Verdana-Bold" font-size="36" fill="#294270">(6, 4, 2)</tspan>
    </text>
    <text transform="matrix(1, 0, 0, 1, 450, 500)">
      <tspan x="-55.028" y="-30.5" font-family="Verdana-Bold" font-size="36" fill="#294270">Swap</tspan>
      <tspan x="-102.647" y="13.5" font-family="Verdana-Bold" font-size="36" fill="#294270">0th an 1st</tspan>
      <tspan x="-46.74" y="57.5" font-family="Verdana-Bold" font-size="36" fill="#294270">"01"</tspan>
    </text>
    <text transform="matrix(1, 0, 0, 1, 750, 522)">
      <tspan x="-55.028" y="-52.5" font-family="Verdana-Bold" font-size="36" fill="#294270">Swap</tspan>
      <tspan x="-107.033" y="-8.5" font-family="Verdana-Bold" font-size="36" fill="#294270">1st an 2nd</tspan>
      <tspan x="-46.74" y="35.5" font-family="Verdana-Bold" font-size="36" fill="#294270">"12"</tspan>
    </text>
    <text transform="matrix(1, 0, 0, 1, 1050, 500)">
      <tspan x="-55.028" y="-30.5" font-family="Verdana-Bold" font-size="36" fill="#294270">Swap</tspan>
      <tspan x="-102.647" y="13.5" font-family="Verdana-Bold" font-size="36" fill="#294270">0th an 1st</tspan>
      <tspan x="-46.74" y="57.5" font-family="Verdana-Bold" font-size="36" fill="#294270">"01"</tspan>
    </text>
  </g>
  <defs/>
</svg>
